<?xml version="1.0" encoding="UTF-8" standalone="no"?>
<svg width="85px" height="207px" viewBox="0 0 85 207" version="1.1" xmlns="http://www.w3.org/2000/svg" xmlns:xlink="http://www.w3.org/1999/xlink" xmlns:sketch="http://www.bohemiancoding.com/sketch/ns">
    <!-- Generator: Sketch 3.4.4 (17249) - http://www.bohemiancoding.com/sketch -->
    <title>Shape</title>
    <desc>Created with Sketch.</desc>
    <defs></defs>
    <g id="Page-1" stroke="none" stroke-width="1" fill="none" fill-rule="evenodd" sketch:type="MSPage">
        <path d="M33.1126249,20.4624011 L33.1126249,30.6588809 L38.2108647,25.560641 L33.1126249,20.4624011 Z M33.2363864,13.5150948 C33.9875809,9.19017612 37.7591426,5.94204256 42.2548309,5.94900722 C46.4554615,5.95551478 50.015095,8.80189692 51.0660972,12.7054085 L41.7463987,22.0251071 L33.2363864,13.5150948 Z M51.3701219,31.6488303 L51.3701219,19.4724516 L45.2819326,25.560641 L51.3701219,31.6488303 Z M48.5063395,35.8561157 L41.7393276,42.6231276 L34.9793868,35.8631868 L41.7463987,29.0961749 L48.5063395,35.8561157 Z M28.1063088,15.2130505 L28.1063088,33.9001153 C28.0574855,34.0196903 28.0175318,34.143959 27.9872484,34.2721206 C27.8647077,34.7907226 27.9122916,35.3231938 28.1063088,35.7983598 L28.1063088,50.9403476 C20.5440956,48.7448018 14.1947944,47.1839663 10.6337003,47.1839663 C6.33587755,47.1785476 2.45848347,49.7640394 0.811273791,53.7336753 C-0.835935886,57.7033113 0.0718144088,62.2744099 3.11083642,65.3134319 C6.14985844,68.3524539 10.720957,69.2602042 14.690593,67.6129945 C18.660229,65.9657849 21.2457208,62.0883908 21.240302,57.790568 C21.3097372,56.8520971 20.8484027,55.9536283 20.0452703,55.4631924 C19.242138,54.9727565 18.23215,54.9727565 17.4290176,55.4631924 C16.6258853,55.9536283 16.1645508,56.8520971 16.233986,57.790568 C16.235055,60.060082 14.8686144,62.1066698 12.7720613,62.975669 C10.6755083,63.8446683 8.26190642,63.3648685 6.65711757,61.7600797 C5.05232871,60.1552908 4.57252893,57.741689 5.44152822,55.6451359 C6.31052751,53.5485829 8.3571153,52.1821422 10.6266292,52.1832113 C13.8450696,52.1924332 20.4460863,53.9004601 28.1063088,56.1603116 L28.1063088,56.2910711 C28.0632936,56.4976372 28.0459983,56.7114024 28.0568114,56.9278978 L27.7527555,186.957764 C27.7520181,187.456229 27.8997141,187.943626 28.1770195,188.357835 L39.6841213,205.621981 C39.9488503,206.120584 40.3798585,206.526848 40.9226123,206.756646 C41.8677603,207.156816 42.9613213,206.941227 43.6838712,206.212281 C43.8239055,206.070581 43.9452687,205.913949 44.046443,205.746194 L55.655189,188.329551 C55.929821,187.919347 56.0773964,187.437267 56.0794531,186.943622 L56.3976512,66.4172708 C56.3680594,65.8247958 56.1347029,65.288723 55.7674188,64.8755824 C55.8328489,64.800585 55.8934792,64.7220477 55.9491091,64.6404527 C63.6238647,66.8576624 70.0852543,68.425454 73.8207622,68.425454 C76.6390048,68.4330069 79.3431164,67.3126593 81.3302363,65.3141842 L81.3302363,65.3141842 C84.7497114,61.9195224 85.4552983,56.6481609 83.0489722,52.4736988 C80.6426461,48.2992367 75.7274904,46.267895 71.0761668,47.5255628 C66.4248433,48.7832306 63.2030859,53.014706 63.2283027,57.8329945 C63.1588675,58.7714654 63.620202,59.6699342 64.4233343,60.1603701 C65.2264667,60.650806 66.2364547,60.650806 67.039587,60.1603701 C67.8427194,59.6699342 68.3040539,58.7714654 68.2346187,57.8329945 C68.2335496,55.5634805 69.5999903,53.5168927 71.6965433,52.6478935 C73.7930964,51.7788942 76.2066982,52.258694 77.8114871,53.8634828 C79.416276,55.4682717 79.8960757,57.8818735 79.0270764,59.9784266 C78.1580772,62.0749796 76.1114894,63.4414203 73.8419755,63.4403512 C70.5081587,63.4269624 63.9800819,61.7741914 56.3840447,59.5522995 L56.3905801,14.6216991 C56.5628534,9.45672574 53.9056899,4.60862922 49.4591977,1.97512681 C45.0127056,-0.658375602 39.4841834,-0.658375602 35.0376912,1.97512681 C31.004443,4.3638792 28.4433885,8.57471801 28.1307583,13.1913807 C28.0640963,13.338066 28.0110219,13.4924252 27.9731063,13.6528869 C27.8476408,14.1838666 27.9005178,14.7293856 28.1063088,15.2130505 Z M33.1126249,41.0674927 L33.1126249,51.2498303 L38.2037937,46.1586615 L33.1126249,41.0674927 Z M51.3701219,52.253922 L51.3701219,40.063401 L45.2748615,46.1586615 L51.3701219,52.253922 Z M49.5420386,57.4969064 C47.1811961,56.7736302 44.7815322,56.0280897 42.3969369,55.28741 C40.7922777,54.789179 39.1979401,54.2941861 37.6247341,53.8087867 L41.7393276,49.6941954 L49.5420386,57.4969064 Z M33.0670661,58.3664569 L32.7873557,186.194088 L39.4114855,196.127722 L39.7028601,74.1742322 C39.6565936,73.2479017 40.1249267,72.3715549 40.9207756,71.8952637 C41.7166244,71.4189725 42.710263,71.4203739 43.5047652,71.8989082 C44.2992673,72.3774425 44.7651265,73.255107 44.7162471,74.1813032 L44.4248028,196.164019 L51.0731371,186.194088 L51.3842641,66.4101997 C51.4150818,65.8262467 51.6437466,65.2976592 52.0031832,64.8879763 C51.6177189,64.4536767 51.3868393,63.8902 51.3709862,63.2877939 C48.009875,62.2762186 44.489718,61.1831547 40.9190837,60.074523 C38.4796614,59.3176517 36.0239935,58.5553653 33.6148645,57.8186585 L33.0670661,58.3664569 Z" id="Shape" stroke="#292828" stroke-width="6" sketch:type="MSShapeGroup"></path>
    </g>
</svg>