<?xml version="1.0" encoding="UTF-8" standalone="no"?>
<svg width="24px" height="90px" viewBox="0 0 24 90" version="1.1" xmlns="http://www.w3.org/2000/svg" xmlns:xlink="http://www.w3.org/1999/xlink" xmlns:sketch="http://www.bohemiancoding.com/sketch/ns">
    <!-- Generator: Sketch 3.4.4 (17249) - http://www.bohemiancoding.com/sketch -->
    <title>Shape</title>
    <desc>Created with Sketch.</desc>
    <defs></defs>
    <g id="Page-1" stroke="none" stroke-width="1" fill="none" fill-rule="evenodd" sketch:type="MSPage">
        <g id="Shape" sketch:type="MSLayerGroup" fill="#000000">
            <path d="M15.862,18.586 L16.802,1.694 L16.803,1.665 C16.803,0.747 16.056,0 15.138,0 L8.862,0 C7.944,0 7.197,0.747 7.197,1.665 L8.138,18.586 L0.401,18.586 L0.401,21.332 L2.724,21.332 L2.724,23.447 L6.759,23.447 L6.169,79.921 L6.176,79.921 L6.245,80.2 L11.473,88.805 L11.473,88.83 L11.488,88.83 L12.199,90 L17.762,80.186 L17.872,79.896 L17.83,79.898 L17.323,23.562 C17.323,23.522 17.321,23.486 17.32,23.447 L21.276,23.447 L21.276,21.332 L23.599,21.332 L23.599,18.586 L15.862,18.586 L15.862,18.586 Z M8.862,1.054 L11.779,1.054 L11.938,18.388 L9.182,18.388 L8.251,1.653 C8.257,1.321 8.529,1.054 8.862,1.054 L8.862,1.054 Z M11.473,79.926 L11.473,86.775 L7.224,79.804 L7.813,23.447 L11.474,23.447 L11.474,79.926 L11.473,79.926 Z M12.527,87.286 L12.527,79.927 L12.527,23.447 L16.268,23.447 C16.269,23.486 16.27,23.525 16.27,23.567 L16.776,79.75 L12.527,87.286 L12.527,87.286 Z M20.223,22.394 L3.777,22.394 L3.777,21.755 L20.222,21.755 L20.222,22.394 L20.223,22.394 Z M22.546,20.278 L1.454,20.278 L1.454,19.64 L22.545,19.64 L22.545,20.278 L22.546,20.278 Z" sketch:type="MSShapeGroup"></path>
        </g>
    </g>
</svg>